<svg width="100" height="100" viewBox="0 0 100 100" xmlns="http://www.w3.org/2000/svg">
  <defs>
    <linearGradient id="brainGradient" x1="0%" y1="0%" x2="100%" y2="100%">
      <stop offset="0%" style="stop-color:#007BFF;stop-opacity:1" />
      <stop offset="100%" style="stop-color:#00C6FF;stop-opacity:1" />
    </linearGradient>
    <pattern id="circuitPattern" patternUnits="userSpaceOnUse" width="10" height="10">
      <path d="M 0 5 L 5 5 L 5 0 M 5 10 L 5 5 L 10 5" stroke="white" stroke-width="0.5" fill="none" />
    </pattern>
  </defs>
  <path d="M50,10 C20,10 10,40 25,60 C10,80 30,90 50,90 C70,90 90,80 75,60 C90,40 80,10 50,10 Z" fill="url(#brainGradient)" />
  <path d="M50,10 C20,10 10,40 25,60 C10,80 30,90 50,90 C70,90 90,80 75,60 C90,40 80,10 50,10 Z" fill="url(#circuitPattern)" />
</svg>